<?xml version="1.0" standalone="no"?>
<!DOCTYPE svg PUBLIC "-//W3C//DTD SVG 20010904//EN"
 "http://www.w3.org/TR/2001/REC-SVG-20010904/DTD/svg10.dtd">
<svg version="1.0" xmlns="http://www.w3.org/2000/svg"
 width="1000.000000pt" height="1000.000000pt" viewBox="0 0 1000.000000 1000.000000"
 preserveAspectRatio="xMidYMid meet">
<metadata>
Created by potrace 1.11, written by Peter Selinger 2001-2013
</metadata>
<g transform="translate(0.000000,1000.000000) scale(0.100000,-0.100000)"
fill="#000000" stroke="none">
<path d="M4350 9389 c-92 -15 -214 -80 -284 -152 -74 -76 -110 -140 -136 -243
-20 -76 -20 -119 -20 -2448 l-1 -2371 -72 -45 c-464 -289 -814 -836 -868
-1359 -17 -163 -6 -467 21 -594 49 -234 139 -446 276 -654 264 -400 677 -700
1147 -833 238 -68 289 -74 592 -74 306 0 373 8 603 75 398 117 730 333 1004
654 178 209 323 494 393 774 24 96 45 291 45 426 0 426 -123 782 -392 1138
-116 154 -322 343 -486 447 l-71 45 0 2380 c-1 2639 4 2430 -68 2567 -44 84
-133 170 -223 216 -121 60 -141 62 -805 61 -330 -1 -625 -5 -655 -10z m1105
-539 c53 -27 88 -70 105 -129 6 -24 10 -862 10 -2443 0 -2027 2 -2408 14
-2408 24 0 225 -108 319 -172 114 -78 305 -266 379 -373 114 -166 188 -334
225 -507 25 -118 25 -420 0 -537 -76 -357 -312 -686 -647 -903 -165 -107 -288
-160 -510 -216 -99 -25 -119 -27 -335 -27 -249 0 -324 10 -510 71 -444 144
-821 510 -955 926 -52 165 -63 230 -64 403 -1 186 11 263 65 429 70 214 183
391 364 571 129 129 229 202 385 281 l95 49 153 3 152 3 0 -154 0 -154 -52
-12 c-82 -18 -239 -93 -330 -158 -104 -73 -228 -197 -292 -292 -61 -91 -122
-228 -142 -318 -22 -95 -29 -316 -15 -411 52 -333 279 -618 625 -783 251 -120
590 -142 878 -58 212 62 452 234 599 429 63 85 135 242 160 350 30 131 30 316
0 455 -53 244 -221 482 -451 638 -87 59 -242 131 -317 148 l-53 12 -2 1668 -3
1669 -28 27 -27 28 -245 0 -245 0 -27 -28 c-26 -25 -28 -34 -33 -130 l-5 -102
-127 -3 -128 -3 0 301 0 300 195 0 196 0 -3 128 -3 127 -193 0 -192 0 0 302 0
303 193 2 192 3 0 125 0 125 -193 3 -194 2 4 158 c3 140 6 162 26 199 27 51
82 90 143 102 24 5 213 9 419 8 l375 -2 50 -25z m-755 -2709 l0 -300 -130 -3
-130 -3 0 303 0 302 130 0 130 0 0 -299z m0 -851 l0 -300 -130 0 -130 0 0 300
0 300 130 0 130 0 0 -300z m0 -860 l0 -300 -130 0 -130 0 0 300 0 300 130 0
130 0 0 -300z"/>
</g>
</svg>
